<svg xmlns="http://www.w3.org/2000/svg" version="1.1" width="256" height="256" fill="none" viewBox="0 0 256 256" id="svg5" sodipodi:docname="favicon.svg" inkscape:version="1.3.2 (091e20e, 2023-11-25, custom)" inkscape:export-filename="..\app-icon-2.png" inkscape:export-xdpi="384" inkscape:export-ydpi="384" xml:space="preserve" xmlns:inkscape="http://www.inkscape.org/namespaces/inkscape" xmlns:sodipodi="http://sodipodi.sourceforge.net/DTD/sodipodi-0.dtd" xmlns:svg="http://www.w3.org/2000/svg"><sodipodi:namedview id="namedview5" pagecolor="#505050" bordercolor="#ffffff" borderopacity="1" inkscape:showpageshadow="0" inkscape:pageopacity="0" inkscape:pagecheckerboard="1" inkscape:deskcolor="#505050" inkscape:zoom="1.8753964" inkscape:cx="185.82738" inkscape:cy="146.36906" inkscape:window-width="1920" inkscape:window-height="1051" inkscape:window-x="-9" inkscape:window-y="-9" inkscape:window-maximized="1" inkscape:current-layer="svg5" showguides="true"><sodipodi:guide position="154.53859,233.3846" orientation="0,-1" id="guide1" inkscape:locked="false"></sodipodi:guide><sodipodi:guide position="34.086985,98.511575" orientation="1,0" id="guide2" inkscape:locked="false"></sodipodi:guide><sodipodi:guide position="221.5654,119.16042" orientation="1,0" id="guide3" inkscape:locked="false"></sodipodi:guide><sodipodi:guide position="137.82286,22.471378" orientation="0,-1" id="guide4" inkscape:locked="false"></sodipodi:guide></sodipodi:namedview><defs id="defs5"></defs><g id="g8" transform="matrix(1.2136722,0,0,1.2136722,-291.00608,307.29622)" style="stroke-width:0.823946"><path style="opacity:1;fill:#000000;fill-rule:evenodd;stroke:#2c292a;stroke-width:0;stroke-linecap:square;paint-order:markers stroke fill" d="m 345.15463,-245.53205 c -4.54199,0.24411 -8.01076,3.73922 -11.984,5.55062 -23.79492,13.70525 -47.68007,27.27225 -71.27959,41.30538 -2.46047,2.08144 -3.92441,5.24268 -3.36966,8.4909 0.042,28.99641 -0.36442,57.99755 0.0843,86.99109 -0.50768,4.039677 4.34259,6.350169 7.72609,5.015279 11.52506,-3.701769 22.00875,-10.157439 31.63989,-17.391789 14.14801,-11.13367 26.49794,-24.69019 35.62377,-40.24815 0.53411,-1.52595 1.34503,-0.82851 2.24693,0.0266 1.14909,0.85205 2.46509,1.44421 3.82405,1.87233 -4.23072,10.93392 -9.91038,21.39526 -12.63907,32.85613 -1.03482,6.59887 -1.30183,13.66614 1.39441,19.9309 4.36564,11.376454 14.51583,19.342183 25.0527,24.745104 12.59085,6.044847 27.95561,6.102811 40.58948,0.163881 1.96727,-0.98214 5.44065,-2.381174 4.25475,-5.214883 -6.61021,-16.627084 -21.87181,-28.871632 -38.92426,-33.573082 -7.99675,-2.30945 -16.5444,-2.39034 -24.70322,-0.98511 -1.21385,0.92081 -1.34983,-0.69615 -0.95727,-1.39656 13.24892,-2.23252 27.2673,-0.72237 39.28229,5.50751 9.83021,4.66993 18.0677,12.090757 23.24698,21.602177 1.67403,2.82044 2.84729,5.942556 4.72623,8.634 2.18083,1.438236 4.27718,-1.227416 6.27888,-1.879881 7.4942,-4.291619 15.20417,-8.293623 22.3554,-13.13304 2.35062,-2.320799 3.92381,-5.532266 3.36499,-8.897996 -0.0388,-27.60765 0.33309,-55.21833 0.018,-82.8241 -0.18217,-3.56032 0.14338,-8.06458 -3.39377,-10.19173 -15.43293,-9.67708 -31.43626,-18.42266 -47.19616,-27.5554 -11.0315,-6.18949 -21.89177,-12.71607 -33.05684,-18.6496 -1.33383,-0.52311 -2.77112,-0.79726 -4.20539,-0.7505 z m 24.68289,30.90727 c 1.74907,0.28115 1.35681,2.88435 1.60617,4.19039 0.45381,9.2637 -1.81519,18.40859 -5.94608,26.71259 -1.54766,3.64739 -3.86692,7.12078 -5.04246,10.9227 1.3625,7.59035 0.76304,15.64329 -2.81092,22.5737 -0.82986,1.69068 -1.75013,3.34478 -2.84181,4.88156 -0.35819,-4.94735 -2.12928,-9.83453 -4.67644,-14.00752 -2.03817,-1.0481 -4.717,-0.0534 -6.95028,-0.9167 -4.82892,-1.05622 -8.28784,-4.84717 -11.67474,-8.09545 -2.92528,-0.74675 -6.14675,0.27475 -9.00163,1.20929 -1.44462,0.54611 -2.88585,1.10907 -4.37425,1.52747 3.38816,-6.95711 8.62327,-13.23829 15.76988,-16.43308 4.73496,-1.8862 8.0389,-5.9076 10.67712,-10.10577 5.81808,-8.82032 13.22962,-16.91586 22.69198,-21.90684 0.81291,-0.33404 1.68843,-0.57629 2.57346,-0.55234 z" id="path3"></path><path style="opacity:1;fill:#000000;fill-rule:evenodd;stroke:#2c292a;stroke-width:0;stroke-linecap:square;paint-order:markers stroke fill" d="m 359.42063,-197.09491 c -3.58552,0.91808 -6.03662,4.17471 -8.23837,6.94769 -1.44802,2.42416 -3.70974,5.53975 -2.34594,8.4487 1.11396,2.25356 3.84929,0.73212 5.15407,-0.48437 3.86816,-3.49969 6.69486,-8.50787 7.07075,-13.74513 -0.1179,-0.76261 -0.90495,-1.23932 -1.64051,-1.16689 z" id="path4"></path><path d="m 370.07366,-216.10872 h -0.36416 c -1.6768,-0.0424 -3.41289,0.51659 -5.28448,1.79537 -8.49411,5.3861 -15.51468,12.66919 -20.40111,20.29102 -2.92171,4.26825 -5.10663,8.35015 -10.08623,10.38266 -8.01141,2.95557 -13.44832,10.09469 -17.36086,17.58103 -0.99931,1.98167 -0.18632,3.02333 1.76996,2.12564 4.83563,-2.27809 8.95989,-3.50604 12.78775,-3.31127 2.44745,4.49688 9.17159,9.08692 16.09903,9.08692 1.30418,-0.43189 2.11717,-0.28793 2.74386,1.3042 2.00708,4.77635 3.35359,7.82509 3.35359,12.13566 0,1.89699 0.99931,2.54061 2.35431,0.80452 6.48703,-8.72277 8.07068,-19.82526 6.44469,-26.63409 -0.49965,-2.08331 -0.26254,-2.8963 0.91462,-4.83564 6.21603,-11.11095 10.92464,-22.89939 9.92534,-36.11058 -0.4065,-2.98946 -1.08401,-4.61544 -2.89631,-4.61544 z m -9.86605,22.23036 c -0.71984,4.44608 -5.69944,12.42359 -9.41721,12.71153 -2.22726,0.1948 -2.18492,-2.54906 -0.93155,-5.64016 2.00707,-4.39525 6.98669,-9.45954 9.72208,-9.65432 1.12633,-0.14396 0.98237,1.084 0.62668,2.58295 z" fill="url(#paint1_linear_1012_427)" id="path7" style="display:inline;opacity:1;fill:#ffffff;stroke-width:0.823945"></path><path d="m 251.4101,-190.9143 -0.10163,87.65115 c -0.009,6.901999 3.64153,12.449002 9.27323,15.1844 l 76.53173,43.698543 c 6.3854,3.565334 13.2366,2.193404 17.84358,-0.940021 l 76.69264,-44.088115 c 6.08054,-3.59073 8.78204,-9.688205 8.4433,-17.352377 l -0.0763,-2.54063 0.25405,-81.01168 c 0.18631,-6.65641 -3.59073,-12.20341 -8.51953,-15.5655 l -77.78507,-44.74018 c -2.7015,-1.69376 -5.7333,-2.62532 -8.84131,-2.57449 h -0.19478 c -2.98099,-0.0508 -5.91117,0.77911 -8.72279,2.44746 l -76.08288,44.40145 c -5.32683,2.93864 -8.43484,8.62961 -8.71431,15.44692 z m 8.43484,0.92309 c 0,-4.12426 1.16866,-6.66489 4.2174,-8.44331 l 77.11609,-44.53694 c 2.49827,-1.45662 6.04665,-1.64293 8.49411,-0.14398 l 77.15842,44.14739 c 3.34515,2.04942 4.97114,4.96267 4.97114,7.79969 l -0.27949,85.53397 c 0,4.92032 -1.27028,7.054438 -4.19199,8.951424 l -23.71239,13.634627 c -1.30419,0.846872 -2.02402,0.677505 -2.65918,-1.304178 -5.67403,-12.974065 -13.9395,-22.975613 -29.21705,-29.869153 -3.90409,-1.99014 -8.20619,-3.31125 -12.77081,-4.11579 -1.626,-0.72831 -3.93796,-0.85533 -5.85189,-1.19409 -2.00708,-0.38108 -4.92879,-0.43189 -7.3339,-0.38108 -2.22727,-0.0932 -4.6832,0.14396 -6.78343,0.38108 -1.99862,0 -3.82788,0.42344 -5.50467,0.66056 -1.43969,0 -1.58365,0.82147 -1.43969,2.55756 0.27949,2.18492 0.77066,2.55755 2.35431,1.89698 2.44746,-0.7283 6.12288,-1.00777 11.05166,-1.00777 10.89924,-0.19479 22.78931,3.78552 33.64619,11.59366 7.20688,5.29295 12.73694,11.686824 17.39474,21.637559 1.30418,2.278086 0.34721,2.930181 -1.43969,3.912546 -6.58018,3.362077 -12.6099,4.861043 -19.04614,4.861043 h -5.89421 c -2.92169,-0.143969 -6.21604,-0.914624 -8.67195,-1.566705 -3.48064,-0.770655 -6.86813,-2.269622 -9.91688,-4.014173 -4.40372,-2.413579 -8.03679,-5.250599 -11.7969,-8.392489 -2.18492,-1.854663 -4.14119,-4.132738 -5.96196,-6.766515 -6.1229,-8.773576 -7.07138,-17.454006 -5.32684,-26.837326 2.54062,-10.18786 7.75735,-20.37573 13.28741,-33.87486 -3.29432,-0.77066 -5.47925,-1.76149 -6.69875,-3.74316 -0.8638,-0.85534 -1.44816,-0.47426 -1.68527,0.2456 -6.48703,11.33113 -13.06722,20.15553 -23.44138,30.43653 -11.89008,12.03406 -27.93828,22.68769 -42.25888,27.88747 -5.29294,1.736083 -7.88435,0.194769 -7.88435,-3.88714 l 0.0763,-13.82941 v -72.24657 z" fill="url(#paint0_linear_1012_427)" id="path8" style="display:inline;opacity:1;fill:#ffffff;stroke-width:0.823945"></path></g></svg>