<svg xmlns="http://www.w3.org/2000/svg" width="256" height="256" fill="none" viewBox="0 0 256 256">
  <g style="stroke-width:.823946">
    <path d="M345.155-245.532c-4.542.244-8.011 3.74-11.984 5.55-23.795 13.706-47.68 27.273-71.28 41.306-2.46 2.081-3.924 5.243-3.37 8.49.042 28.997-.364 57.998.085 86.992-.508 4.04 4.342 6.35 7.726 5.015 11.525-3.702 22.009-10.157 31.64-17.392 14.148-11.133 26.498-24.69 35.623-40.248.535-1.526 1.345-.828 2.247.027 1.15.852 2.465 1.444 3.824 1.872-4.23 10.934-9.91 21.395-12.639 32.856-1.034 6.6-1.301 13.666 1.395 19.931 4.365 11.377 14.516 19.342 25.052 24.745 12.591 6.045 27.956 6.103 40.59.164 1.967-.982 5.44-2.38 4.255-5.215-6.61-16.627-21.872-28.871-38.925-33.573-7.996-2.31-16.544-2.39-24.703-.985-1.214.921-1.35-.696-.957-1.396 13.249-2.233 27.267-.723 39.282 5.507 9.83 4.67 18.068 12.09 23.247 21.602 1.674 2.82 2.847 5.943 4.726 8.634 2.181 1.439 4.278-1.227 6.28-1.88 7.494-4.291 15.203-8.293 22.355-13.133 2.35-2.32 3.924-5.532 3.365-8.898-.04-27.607.333-55.218.018-82.824-.182-3.56.143-8.064-3.394-10.191-15.433-9.678-31.436-18.423-47.196-27.556-11.032-6.19-21.892-12.716-33.057-18.65-1.334-.523-2.771-.797-4.205-.75zm24.683 30.907c1.749.281 1.356 2.885 1.606 4.19.453 9.264-1.816 18.41-5.946 26.713-1.548 3.648-3.867 7.121-5.043 10.923 1.363 7.59.763 15.643-2.81 22.574-.83 1.69-1.75 3.344-2.843 4.881-.358-4.947-2.129-9.834-4.676-14.007-2.038-1.048-4.717-.054-6.95-.917-4.83-1.056-8.288-4.847-11.675-8.096-2.925-.746-6.147.275-9.002 1.21-1.444.546-2.886 1.109-4.374 1.527 3.388-6.957 8.623-13.238 15.77-16.433 4.735-1.886 8.039-5.907 10.677-10.106 5.818-8.82 13.23-16.915 22.692-21.906.813-.334 1.688-.577 2.574-.553z" style="opacity:1;fill:#000;fill-rule:evenodd;stroke:#2c292a;stroke-width:0;stroke-linecap:square;paint-order:markers stroke fill" transform="translate(-291.006 307.296)scale(1.21367)"/>
    <path d="M359.42-197.095c-3.585.918-6.036 4.175-8.238 6.948-1.448 2.424-3.71 5.54-2.346 8.448 1.114 2.254 3.85.733 5.154-.484 3.869-3.5 6.695-8.508 7.071-13.745-.118-.763-.905-1.24-1.64-1.167z" style="opacity:1;fill:#000;fill-rule:evenodd;stroke:#2c292a;stroke-width:0;stroke-linecap:square;paint-order:markers stroke fill" transform="translate(-291.006 307.296)scale(1.21367)"/>
    <path fill="url(#paint1_linear_1012_427)" d="M370.074-216.109h-.364c-1.677-.042-3.413.517-5.285 1.796-8.494 5.386-15.515 12.669-20.401 20.29-2.922 4.269-5.107 8.35-10.086 10.383-8.012 2.956-13.449 10.095-17.361 17.581-1 1.982-.187 3.024 1.77 2.126 4.835-2.278 8.96-3.506 12.788-3.311 2.447 4.497 9.171 9.087 16.099 9.087 1.304-.432 2.117-.288 2.743 1.304 2.008 4.776 3.354 7.825 3.354 12.136 0 1.896 1 2.54 2.354.804 6.487-8.723 8.071-19.825 6.445-26.634-.5-2.083-.263-2.896.915-4.836 6.216-11.11 10.924-22.9 9.925-36.11-.407-2.99-1.084-4.616-2.896-4.616m-9.866 22.23c-.72 4.447-5.7 12.424-9.418 12.712-2.227.195-2.185-2.549-.931-5.64 2.007-4.395 6.987-9.46 9.722-9.654 1.126-.144.982 1.084.627 2.583" style="display:inline;opacity:1;fill:#fff;stroke-width:.823945" transform="translate(-291.006 307.296)scale(1.21367)"/>
    <path fill="url(#paint0_linear_1012_427)" d="m251.41-190.914-.102 87.65c-.009 6.903 3.642 12.45 9.274 15.185l76.531 43.699c6.386 3.565 13.237 2.193 17.844-.94l76.693-44.088c6.08-3.591 8.782-9.689 8.443-17.353l-.076-2.54.254-81.012c.186-6.656-3.591-12.203-8.52-15.566l-77.785-44.74c-2.701-1.693-5.733-2.625-8.841-2.574h-.195c-2.981-.051-5.911.779-8.723 2.447l-76.083 44.402c-5.326 2.938-8.435 8.63-8.714 15.447zm8.435.923c0-4.124 1.169-6.665 4.217-8.444l77.116-44.536c2.499-1.457 6.047-1.643 8.495-.144l77.158 44.147c3.345 2.05 4.971 4.963 4.971 7.8l-.28 85.534c0 4.92-1.27 7.054-4.191 8.951l-23.713 13.635c-1.304.847-2.024.677-2.659-1.305-5.674-12.974-13.94-22.975-29.217-29.869-3.904-1.99-8.206-3.31-12.77-4.115-1.627-.729-3.939-.856-5.853-1.195-2.007-.38-4.928-.431-7.334-.38-2.227-.094-4.683.143-6.783.38-1.999 0-3.828.424-5.505.661-1.44 0-1.583.821-1.44 2.558.28 2.184.771 2.557 2.355 1.897 2.447-.729 6.123-1.008 11.052-1.008 10.899-.195 22.789 3.785 33.646 11.593 7.207 5.293 12.737 11.687 17.395 21.638 1.304 2.278.347 2.93-1.44 3.913-6.58 3.362-12.61 4.86-19.046 4.86h-5.895c-2.921-.143-6.216-.914-8.671-1.566-3.481-.77-6.869-2.27-9.917-4.014-4.404-2.414-8.037-5.25-11.797-8.393-2.185-1.854-4.141-4.133-5.962-6.766-6.123-8.774-7.072-17.454-5.327-26.838 2.54-10.187 7.757-20.375 13.287-33.874-3.294-.771-5.479-1.762-6.698-3.744-.864-.855-1.449-.474-1.686.246-6.487 11.331-13.067 20.155-23.441 30.436-11.89 12.035-27.938 22.688-42.259 27.888-5.293 1.736-7.884.195-7.884-3.887l.076-13.83v-72.246z" style="display:inline;opacity:1;fill:#fff;stroke-width:.823945" transform="translate(-291.006 307.296)scale(1.21367)"/>
  </g>
</svg>