<?xml version="1.0" encoding="UTF-8" standalone="no"?>
<svg
   width="256"
   height="256"
   fill="none"
   viewBox="0 0 256 256"
   version="1.1"
   id="svg5"
   sodipodi:docname="logo-dark.svg"
   inkscape:version="1.3.2 (091e20e, 2023-11-25, custom)"
   inkscape:export-filename="..\app-icon-2.png"
   inkscape:export-xdpi="384"
   inkscape:export-ydpi="384"
   xml:space="preserve"
   xmlns:inkscape="http://www.inkscape.org/namespaces/inkscape"
   xmlns:sodipodi="http://sodipodi.sourceforge.net/DTD/sodipodi-0.dtd"
   xmlns="http://www.w3.org/2000/svg"
   xmlns:svg="http://www.w3.org/2000/svg"><sodipodi:namedview
     id="namedview5"
     pagecolor="#505050"
     bordercolor="#ffffff"
     borderopacity="1"
     inkscape:showpageshadow="0"
     inkscape:pageopacity="0"
     inkscape:pagecheckerboard="1"
     inkscape:deskcolor="#505050"
     inkscape:zoom="1.8753964"
     inkscape:cx="264.21081"
     inkscape:cy="166.63144"
     inkscape:window-width="1920"
     inkscape:window-height="1051"
     inkscape:window-x="-9"
     inkscape:window-y="-9"
     inkscape:window-maximized="1"
     inkscape:current-layer="svg5"
     showguides="true" /><!-- SVG created with Arrow, by QuiverAI (https://quiver.ai) --><defs
     id="defs5" /><path
     d="M 155.21571,51.086885 H 154.808 c -1.87741,-0.04747 -3.82119,0.578391 -5.91669,2.010156 -9.51029,6.030459 -17.37075,14.184851 -22.84177,22.718506 -3.27125,4.778876 -5.71755,9.349107 -11.29287,11.624773 -8.96985,3.309156 -15.0572,11.30235 -19.437806,19.68432 -1.118861,2.21873 -0.20861,3.38502 1.981706,2.37993 5.41413,-2.55063 10.03179,-3.92548 14.3176,-3.70741 2.74024,5.03485 10.26881,10.17402 18.025,10.17402 1.4602,-0.48356 2.37046,-0.32238 3.07213,1.46022 2.24718,5.34777 3.75479,8.76124 3.75479,13.5875 0,2.12393 1.11886,2.84455 2.63596,0.90076 7.2631,-9.7663 9.03621,-22.19702 7.2157,-29.82042 -0.55943,-2.33254 -0.29396,-3.24279 1.02403,-5.414139 6.95967,-12.440192 12.23159,-25.638925 11.11275,-40.430614 -0.45513,-3.347101 -1.2137,-5.167602 -3.24282,-5.167602 z m -11.04636,24.889856 c -0.80595,4.97798 -6.38127,13.909867 -10.54381,14.232255 -2.49371,0.218105 -2.44631,-2.854014 -1.04301,-6.314912 2.2472,-4.92107 7.82254,-10.591218 10.88518,-10.8093 1.26107,-0.161183 1.09989,1.213682 0.70164,2.891957 z"
     fill="url(#paint1_linear_1012_427)"
     id="path7"
     style="display:inline;opacity:1;fill:#000000;stroke-width:1" /><path
     d="m 22.356021,79.295402 -0.113789,98.137158 c -0.01009,7.72772 4.077179,13.93832 10.382619,17.00097 l 85.687489,48.92635 c 7.14931,3.99187 14.82015,2.45581 19.97827,-1.05248 l 85.86764,-49.36253 c 6.80798,-4.0203 9.83268,-10.84723 9.45341,-19.4283 l -0.0854,-2.84457 0.28445,-90.703396 c 0.2086,-7.452741 -4.0203,-13.663347 -9.53874,-17.427656 l -87.0908,-50.092604 c -3.02468,-1.89639 -6.41919,-2.939396 -9.89902,-2.882485 h -0.21809 c -3.33762,-0.05687 -6.61834,0.872317 -9.76632,2.740259 l -85.184945,49.71335 c -5.964096,3.2902 -9.443929,9.662001 -9.756833,17.294889 z m 9.443929,1.033522 c 0,-4.617659 1.308471,-7.462233 4.721942,-9.453413 L 122.86365,21.010462 c 2.79715,-1.630881 6.77003,-1.83948 9.51029,-0.161205 l 86.38916,49.428897 c 3.74534,2.294598 5.56585,5.556371 5.56585,8.732794 l -0.31293,95.766692 c 0,5.50896 -1.42225,7.89839 -4.69349,10.02232 l -26.54919,15.26578 c -1.46021,0.9482 -2.26616,0.75856 -2.97731,-1.4602 -6.35283,-14.52619 -15.60713,-25.72426 -32.71239,-33.4425 -4.37115,-2.22823 -9.18791,-3.70739 -14.29862,-4.60818 -1.82052,-0.81543 -4.40907,-0.95765 -6.55197,-1.33694 -2.24719,-0.42667 -5.51843,-0.48355 -8.21128,-0.42667 -2.49373,-0.10435 -5.24348,0.16118 -7.59496,0.42667 -2.23772,0 -4.28581,0.4741 -6.16322,0.73959 -1.61192,0 -1.77309,0.91974 -1.61192,2.86353 0.31293,2.44631 0.86286,2.86352 2.63598,2.12392 2.74024,-0.81544 6.85537,-1.12834 12.3738,-1.12834 12.20316,-0.21809 25.51567,4.2384 37.6714,12.98065 8.06906,5.92616 14.2607,13.08497 19.47573,24.22614 1.4602,2.55062 0.38875,3.28072 -1.61192,4.38061 -7.36739,3.7643 -14.11846,5.44259 -21.3247,5.44259 h -6.59935 c -3.27123,-0.16119 -6.95969,-1.02404 -9.70941,-1.75413 -3.89703,-0.86285 -7.68979,-2.54114 -11.10328,-4.4944 -4.93054,-2.70233 -8.99825,-5.87875 -13.20819,-9.39652 -2.44632,-2.07654 -4.63662,-4.62714 -6.67522,-7.57601 -6.85539,-9.82319 -7.91735,-19.54209 -5.9641,-30.04797 2.84456,-11.40667 8.68538,-22.81335 14.87702,-37.92743 -3.68842,-0.86285 -6.13475,-1.97222 -7.50015,-4.19097 -0.96713,-0.95766 -1.6214,-0.531 -1.88687,0.27499 -7.26311,12.68671 -14.630504,22.5668 -26.245759,34.07775 -13.312531,13.47375 -31.280634,25.4019 -47.314457,31.22375 -5.926153,1.94377 -8.827583,0.21807 -8.827583,-4.35218 l 0.08543,-15.48386 V 80.309947 Z"
     fill="url(#paint0_linear_1012_427)"
     id="path8"
     style="display:inline;opacity:1;fill:#000000;stroke-width:1" /></svg>
