<svg
  width="200"
  height="200"
  viewBox="0 0 200 200"
  xmlns="http://www.w3.org/2000/svg">
  <path
    style="opacity:1;fill:#ffffff;fill-opacity:1;fill-rule:evenodd;stroke:#2c292a;stroke-width:0;stroke-linecap:square;paint-order:markers stroke fill"
    d="m 5.3765627,199.85117 157.0263173,0.21659 c 0,0 -2.38246,-14.07822 -4.98152,-20.14269 -2.59906,-6.06446 -4.11517,-9.96305 -6.28106,-13.42845 -2.16587,-3.46541 -11.04599,-13.86164 -11.04599,-13.86164 0,0 -5.1981,-4.33176 -6.28105,-4.33176 -1.08294,0 0.86636,-7.36399 -4.76494,-10.61281 -5.63128,-3.24882 -11.91234,-6.06447 -12.77869,-5.41471 -0.86635,0.64977 1.29953,8.88012 1.29953,8.88012 0,0 -3.24882,7.36399 -4.98152,9.09669 -1.73271,1.73271 -9.74647,9.74647 -9.74647,9.74647 l -4.764925,-0.64977 -8.013758,-5.63129 -7.580582,-6.71423 -4.981524,-6.71423 -0.216589,-1.73271 2.382469,-5.63128 -3.898585,-4.11518 -3.248821,-3.4654 -1.949291,-1.08295 -4.115173,-0.21658 c 0,0 -5.847877,-0.86635 -8.446934,0.64976 -2.599056,1.51612 -6.064465,3.682 -6.064465,3.682 l -2.599057,4.33176 -1.516116,3.89859 -4.115173,2.59905 -5.198112,-0.43318 -5.631289,2.81565 -4.331761,6.49764 -0.866352,6.06446 v 5.84789 l 2.382468,3.24882 -9.529874,11.91233 -8.446933,12.34552 -3.4654083,6.71423 z"
    id="path10" />
  <path
    style="display:inline;opacity:1;fill:#ffffff;fill-opacity:1;fill-rule:evenodd;stroke:#2c292a;stroke-width:0;stroke-linecap:square;paint-order:markers stroke fill"
    d="m 75.157676,51.859357 c -2.053906,0.291434 -2.440206,2.760792 -3.231572,4.313119 -1.711921,3.625446 -1.018824,7.73243 -0.01471,11.442392 0.350794,1.595314 0.408593,3.679517 -1.31095,4.529312 -1.911325,1.27463 -4.946723,1.38282 -5.847031,3.82075 -0.483789,4.329853 0.02404,8.717348 -0.04773,13.068463 -0.08012,0.871004 0.168902,2.03893 -0.21962,2.752616 -3.655787,-1.257218 -7.442331,1.167258 -9.265906,4.274653 -2.476889,4.041828 -3.429754,9.568708 -0.913731,13.812978 1.907741,2.85491 5.634544,4.5329 9.004901,3.53098 0.546291,0.46927 0.645555,1.73554 1.20731,2.44382 3.147688,4.75563 6.630755,9.35905 10.769332,13.30324 1.150079,1.27754 2.933289,1.86461 4.078369,3.028 -0.740499,2.21907 -2.433003,4.17819 -2.609853,6.54646 0.630585,1.98849 2.426208,3.36896 3.673924,4.98786 4.821061,5.34261 10.243226,10.1926 16.230816,14.19355 1.85043,1.3488 4.528615,1.88047 6.410925,0.28046 5.14078,-4.09028 9.00502,-9.51893 12.75923,-14.84643 1.54148,-1.91826 0.51974,-4.45098 0.43063,-6.64486 -0.38325,-1.55511 -0.006,-3.68891 -1.5821,-4.6486 -0.58224,-0.18637 1.56985,-0.65585 2.02628,-0.9848 5.21143,-2.36997 10.67949,-4.95289 14.37561,-9.48207 2.85184,-3.49959 3.42318,-8.24147 2.92897,-12.59436 -1.08809,-15.757404 -2.9235,-31.518707 -4.82074,-47.146214 -0.42316,-2.248191 0.0572,-4.622775 -0.61634,-6.810757 -0.96521,-1.862758 -3.33478,-0.84427 -4.95602,-0.865333 -8.93138,0.87025 -17.8059,1.634214 -26.774005,0.869956 C 89.885638,54.598191 82.974892,53.555548 76.193076,51.94987 75.85107,51.89498 75.505155,51.842517 75.157678,51.85935 Z m 49.280114,36.857194 c 0.58612,0.626947 0.13155,1.888202 -0.005,2.701426 -0.006,0.564249 -0.52385,1.370767 -0.98269,0.669648 -0.40853,-0.999493 -0.40116,-2.459113 0.33715,-3.282663 0.20331,-0.08813 0.43304,-0.09356 0.65103,-0.08841 z m -26.914435,0.03004 c 0.005,1.369914 0.15009,2.859664 -0.48394,4.122363 -0.0644,-1.345322 -0.25449,-2.947204 0.39002,-4.141824 0.0211,0.01484 0.11419,-0.04841 0.0939,0.01945 z m 9.967695,27.482149 c 0.57048,0.53368 1.44054,1.22607 1.95098,1.52965 -0.70547,-0.37379 -1.51147,-0.99829 -1.95098,-1.52965 z"
    id="path9" />
  <path
    style="display:inline;fill:#000000;stroke-width:1"
    d="m 164.30453,200.22901 c -2.31138,-17.24013 -9.09141,-40.39918 -30.12944,-51.81102 0.60731,-6.74377 -6.91599,-15.50886 -14.76559,-15.92582 l -2.00319,-0.10877 c 10.59606,-4.13328 19.13454,-8.77415 19.13454,-19.98658 0,-6.48997 -4.26924,-34.353353 -6.89786,-49.825958 2.32044,-0.326312 2.21167,-2.365759 2.21167,-4.813096 7.26949,0.23567 10.98582,-3.226858 10.83173,-7.840541 2.90054,-0.833907 7.32388,-3.525977 7.32388,-5.692323 0,-1.314311 -1.25086,-2.139154 -2.18448,-2.963997 3.61662,-1.423081 4.47772,-4.124215 4.11515,-6.707515 -0.54385,-2.982125 -3.22685,-4.323628 -5.71951,-5.293498 -10.06127,-3.997316 -20.97458,-5.501975 -31.8335,-5.501975 -22.279825,0 -38.803877,5.991442 -54.747822,20.657333 -5.873607,-1.250861 -8.955438,3.915739 -7.940247,8.574742 0.163156,0.779522 0.652623,1.114898 0.652623,1.395888 -2.302309,2.492658 -1.37776,4.776839 1.214604,7.106341 1.803778,1.649686 1.223668,2.066639 -0.217541,4.559297 -4.649939,7.976504 -3.136216,17.24919 -0.208477,28.135306 -3.825096,5.574489 -3.462528,15.644826 5.184728,17.811176 2.728327,0.68888 4.876545,0.23566 6.363075,-0.54386 1.114898,4.22392 2.710199,7.27856 5.066893,11.04021 -5.130342,0 -10.278813,0.58917 -14.158295,2.03945 -4.368949,1.60436 -6.326818,4.96718 -7.876798,9.00076 -1.332439,3.27218 -2.719263,3.60755 -6.326818,3.60755 -9.571805,0 -15.662954,8.02183 -15.662954,18.4638 0,4.70432 0.489467,6.60781 2.982125,7.76802 C 18.488598,174.78577 9.0799477,188.52712 3.5235877,200.51 h 3.770711 C 14.871978,180.64125 33.798047,155.33398 58.9331,144.16687 c 0.978935,-0.41695 0.978935,-0.50759 1.867227,0.37164 8.37533,6.97944 16.533118,19.25238 28.561324,22.18918 3.127154,0.59824 3.571294,-3.35376 0.679816,-4.08796 -10.913308,-2.61049 -18.23719,-13.96794 -27.101986,-19.58775 -0.888293,-0.58918 -1.61343,-0.7342 -2.102897,-0.49853 -0.362568,-0.281 -1.559044,-0.0453 -2.048511,0.14502 -0.308183,0.0906 -0.262862,0.51666 -0.208477,0.7614 -10.179107,4.88561 -19.043904,10.31507 -27.79993,18.19186 -1.54998,-0.7342 -2.084768,-1.37776 -2.084768,-5.51103 0,-7.88587 4.314563,-15.53606 12.300132,-15.53606 5.656066,0 8.103403,-1.99413 10.025015,-7.3692 1.704072,-5.03064 4.495848,-6.86161 14.502735,-8.11247 l 5.465719,-0.37163 c 3.027446,3.7979 4.41427,5.92799 7.650192,6.34494 l -2.356694,6.79816 -1.649686,-1.69501 c 3.616619,8.7651 13.578185,19.21613 22.442984,24.48243 3.172465,1.64969 5.764825,0.3807 8.357195,-1.98506 5.61074,-4.74964 10.02501,-9.97063 13.98607,-16.27932 0.78859,-1.55904 -0.65262,-2.77365 -1.43214,-4.13328 l -0.97894,-5.22098 c 7.89493,0.32631 14.57525,8.74696 13.94076,14.01327 -0.30819,1.85816 1.695,2.59236 2.98212,1.52278 14.73841,11.50248 23.54882,28.99641 25.86019,51.86541 h 4.51398 z m -63.24099,-35.77643 c -1.849095,9.50835 -2.338565,23.61226 -2.302305,36.0121 h 4.269235 c -0.0453,-11.60219 -0.97893,-24.37366 -1.71313,-35.92146 -0.0453,-0.46228 -0.19942,-0.5076 -0.2538,-0.0906 z m 47.37862,11.63844 -1.06051,24.37366 h 1.74939 l -0.39883,-24.37366 c 0,-0.37163 -0.24473,-0.37163 -0.29005,0 z M 127.34068,55.537035 c -0.40789,2.202603 -0.14503,4.24205 0.0635,6.181791 1.74939,12.010077 4.15141,36.356544 5.0397,48.366624 0.48947,6.8888 -1.66781,11.33026 -8.78322,15.55418 -7.623,4.61368 -16.5875,7.64113 -25.551995,8.05808 -3.8251,0.14503 -6.18179,-0.41695 -7.160727,-2.7102 -0.734201,-1.89442 -2.828034,-1.29618 -2.574236,0.65263 0.634495,3.70726 4.350823,5.05783 10.641383,4.68619 5.610735,-0.37163 10.133775,-1.48653 15.164415,-2.85522 l 0.83391,7.48703 c 0.0997,0.96987 -0.48947,1.35057 -1.02426,2.17541 -3.9248,5.43853 -7.37827,9.96157 -11.14898,13.13404 -2.04851,1.74033 -3.435325,1.60437 -5.637935,0.0453 -7.31481,-5.17567 -13.705077,-10.84986 -18.94419,-17.91995 l 2.891482,-5.67419 c 0.353504,-2.8371 -2.891482,-2.70114 -4.785902,-4.77684 -4.749646,-4.44146 -8.810412,-10.74109 -10.958629,-13.53286 -0.68888,-2.45641 -0.58011,-2.7374 -2.429209,-2.7374 -0.833907,0 -1.323374,0.55292 -2.565171,0.31725 -6.48091,-1.30524 -6.879735,-8.14872 -4.731517,-13.369708 1.803778,-3.942931 5.094086,-6.553423 8.810411,-5.094085 l 1.241797,0.779522 -0.779522,-1.015192 c 1.48653,0.280991 1.540916,-2.093832 1.540916,-3.254051 l -0.353504,-11.86505 c 0,-2.121025 0.353504,-2.447337 2.311373,-3.226859 5.030636,-1.559044 6.172727,-3.933866 5.075957,-8.112467 -1.595301,-5.583553 -1.441209,-7.994633 1.640622,-13.5238 6.190855,1.985061 18.463796,3.779775 30.392291,3.779775 7.06101,0 15.13722,-0.969871 21.78129,-1.54998 z"     id="path1" />
  <path
    style="display:inline;fill:#000000"
    d="m 88.255817,85.757109 c 2.837098,-2.701134 5.529168,-4.051701 11.810653,-4.378013 2.89149,-0.235669 3.19967,-2.610492 1.50466,-2.610492 -5.284425,-0.779522 -11.375572,2.610492 -13.315313,6.988505 z"
    stroke-miterlimit="10"
    stroke-width="0.75"
    id="path2" />
  <path
    style="display:inline;fill:#000000"
    d="m 119.52733,78.170366 c -2.31137,-0.23567 -2.35669,2.139153 -0.6073,2.465465 4.60462,0.779522 6.2543,1.287118 9.91624,2.701134 -0.15409,-2.202603 -5.00344,-4.613682 -9.30894,-5.166599 z"
    stroke-miterlimit="10"
    stroke-width="0.75"
    id="path3" />
  <path
    style="display:inline;fill:#000000;stroke-width:1"
    d="m 97.591955,86.926392 c -2.31138,0 -2.31138,2.374823 -2.31138,5.44759 0,1.785649 0.58918,2.474529 1.74033,2.474529 1.80378,0 2.33857,-3.027446 2.33857,-5.547296 0,-1.695007 -0.53479,-2.374823 -1.76752,-2.374823 z"
    id="path4" />
  <path
    style="display:inline;fill:#000000;stroke-width:1"
    d="m 124.24072,86.926392 c -2.13915,0 -2.82803,2.23886 -2.82803,4.024509 0,1.604365 0.96987,3.163409 2.46546,3.163409 2.04851,0 2.68301,-2.891483 2.52892,-5.094085 -0.10877,-1.314311 -0.84297,-2.093833 -2.16635,-2.093833 z"
    id="path5" />
  <path
    style="display:inline;fill:#000000;stroke-width:1"
    d="m 115.3578,97.984728 c -0.77953,0.145027 -0.47134,1.015191 0.16315,1.477466 1.84004,1.169286 2.48359,1.948806 2.3295,3.254046 -0.40789,2.80085 -3.09089,3.08184 -5.98238,1.34151 -1.28711,-0.7342 -2.17541,-1.34151 -2.66487,-1.2418 -0.97894,0.18129 -0.97894,1.83097 -0.14503,2.42921 3.17247,2.28418 6.1546,2.92774 8.8376,1.0877 2.98213,-1.99412 3.23593,-7.423583 -2.53797,-8.348132 z"
    id="path6" />
  <path
    style="display:inline;fill:#000000;stroke-width:1"
    d="m 57.401249,99.634414 c 1.894419,-0.915485 5.610745,-0.453211 7.758963,2.057576 1.595301,1.9488 3.89761,-0.2538 2.664877,-1.81284 -2.4564,-2.982127 -7.840541,-2.474532 -10.42384,-0.969873 z"
    id="path7" />
  <path
    style="display:inline;fill:#000000;stroke-width:1"
    d="m 106.47487,114.11902 c -1.18741,0.5076 -1.49559,2.02132 -0.2538,3.28124 4.80403,5.07596 11.76535,2.46547 13.65977,-1.67687 0.68888,-1.64969 -0.75233,-2.66488 -1.68595,-1.40496 -2.89148,3.50785 -7.16072,3.64382 -9.9525,0.30819 -0.53479,-0.64356 -1.12396,-0.77953 -1.76752,-0.5076 z"
    id="path8" />
</svg>
