<svg
   width="200"
   height="200"
   viewBox="0 0 200 200"
   xmlns="http://www.w3.org/2000/svg">
  <path
     style="opacity:1;fill:#ffffff;fill-opacity:1;fill-rule:evenodd;stroke:#2c292a;stroke-width:0;stroke-linecap:square;paint-order:markers stroke fill"
     d="m 12.664277,199.28315 173.237753,0.23895 c 0,0 -2.62843,-15.53166 -5.49582,-22.22222 -2.86738,-6.69056 -4.54002,-10.99164 -6.92951,-14.81481 -2.38948,-3.82318 -12.18638,-15.29272 -12.18638,-15.29272 0,0 -5.73476,-4.77897 -6.92951,-4.77897 -1.19474,0 0.9558,-8.12425 -5.25687,-11.70848 -6.21266,-3.58423 -13.14217,-6.69056 -14.09797,-5.97372 -0.95579,0.71685 1.4337,9.7969 1.4337,9.7969 0,0 -3.58423,8.12425 -5.49582,10.03584 -1.91159,1.91159 -10.75269,10.75269 -10.75269,10.75269 l -5.25687,-0.71685 -8.8411,-6.21266 -8.363202,-7.40741 -5.495818,-7.40741 -0.238949,-1.91159 2.628435,-6.21266 -4.301075,-4.54003 -3.58423,-3.82317 -2.150537,-1.19475 -4.540024,-0.23894 c 0,0 -6.451613,-0.9558 -9.318997,0.71684 -2.867383,1.67264 -6.690561,4.06213 -6.690561,4.06213 l -2.867384,4.77897 -1.67264,4.30108 -4.540024,2.86738 -5.734767,-0.4779 -6.212664,3.10633 -4.778973,7.16846 -0.955794,6.69056 v 6.45162 l 2.628435,3.58423 -10.51374,13.14217 -9.318996,13.62007 -3.823178,7.40741 z"
     id="path10" />
  <path
     style="display:inline;opacity:1;fill:#ffffff;fill-opacity:1;fill-rule:evenodd;stroke:#2c292a;stroke-width:0;stroke-linecap:square;paint-order:markers stroke fill"
     d="m 89.649604,36.012638 c -2.265952,0.321521 -2.692133,3.045816 -3.5652,4.758406 -1.88866,3.999738 -1.124008,8.530727 -0.01623,12.623707 0.38701,1.760014 0.450776,4.059391 -1.446293,4.996919 -2.10865,1.406223 -5.457423,1.525582 -6.450679,4.215205 -0.533735,4.776867 0.02652,9.617328 -0.05266,14.417653 -0.08839,0.960927 0.18634,2.249429 -0.242293,3.036796 -4.033212,-1.387013 -8.210679,1.287766 -10.22252,4.715969 -2.732604,4.459104 -3.783843,10.55658 -1.008065,15.239037 2.104696,3.14965 6.216255,5.00087 9.934569,3.89552 0.60269,0.51771 0.712202,1.91471 1.331952,2.69611 3.472656,5.24661 7.315316,10.32528 11.88116,14.67667 1.268814,1.40944 3.236123,2.05712 4.499421,3.34061 -0.816949,2.44817 -2.684187,4.60955 -2.879295,7.22232 0.695687,2.19379 2.67669,3.71678 4.053221,5.50281 5.318788,5.89418 11.300738,11.24489 17.906498,15.65889 2.04146,1.48806 4.99615,2.07461 7.07279,0.30942 5.67152,-4.51256 9.9347,-10.50167 14.0765,-16.37918 1.70062,-2.1163 0.5734,-4.9105 0.47509,-7.33087 -0.42282,-1.71566 -0.007,-4.06976 -1.74544,-5.12853 -0.64235,-0.20561 1.73192,-0.72356 2.23547,-1.08647 5.74946,-2.61464 11.78205,-5.46422 15.85975,-10.461 3.14627,-3.86089 3.77659,-9.09232 3.23136,-13.894601 -1.20042,-17.384203 -3.22532,-34.772705 -5.31843,-52.013599 -0.46685,-2.480295 0.0631,-5.100031 -0.67997,-7.513901 -1.06486,-2.055069 -3.67907,-0.931432 -5.46768,-0.95467 -9.85346,0.960095 -19.64419,1.802931 -29.53817,0.95977 -7.67638,-0.4814 -15.300592,-1.631685 -22.782564,-3.403134 -0.377315,-0.06056 -0.758943,-0.118436 -1.142293,-0.09986 z m 54.367816,40.662337 c 0.64663,0.691673 0.14513,2.08314 -0.006,2.980322 -0.007,0.622502 -0.57793,1.512285 -1.08414,0.738782 -0.45071,-1.102681 -0.44258,-2.712992 0.37196,-3.621565 0.2243,-0.09723 0.47775,-0.103219 0.71824,-0.09754 z m -29.6931,0.03314 c 0.005,1.511345 0.16559,3.154896 -0.5339,4.547957 -0.0711,-1.484213 -0.28076,-3.251474 0.43029,-4.569427 0.0233,0.01637 0.12598,-0.05341 0.10361,0.02146 z m 10.99677,30.319415 c 0.62938,0.58877 1.58926,1.35265 2.1524,1.68757 -0.7783,-0.41238 -1.66751,-1.10136 -2.1524,-1.68757 z"
     id="path9" />
  <path
     style="display:inline;fill:#000000" 
     d="m 188,199.7 c -2.55,-19.02 -10.03,-44.57 -33.24,-57.16 0.67,-7.44 -7.63,-17.11 -16.29,-17.57 l -2.21,-0.12 c 11.69,-4.56 21.11,-9.68 21.11,-22.05 0,-7.16 -4.71,-37.9 -7.61,-54.97 2.56,-0.36 2.44,-2.61 2.44,-5.31 8.02,0.26 12.12,-3.56 11.95,-8.65 3.2,-0.92 8.08,-3.89 8.08,-6.28 0,-1.45 -1.38,-2.36 -2.41,-3.27 3.99,-1.57 4.94,-4.55 4.54,-7.4 -0.6,-3.29 -3.56,-4.77 -6.31,-5.84 -11.1,-4.41 -23.14,-6.07 -35.12,-6.07 -24.58,0 -42.81,6.61 -60.4,22.79 -6.48,-1.38 -9.88,4.32 -8.76,9.46 0.18,0.86 0.72,1.23 0.72,1.54 -2.54,2.75 -1.52,5.27 1.34,7.84 1.99,1.82 1.35,2.28 -0.24,5.03 -5.13,8.8 -3.46,19.03 -0.23,31.04 -4.22,6.15 -3.82,17.26 5.72,19.65 3.01,0.76 5.38,0.26 7.02,-0.6 1.23,4.66 2.99,8.03 5.59,12.18 -5.66,0 -11.34,0.65 -15.62,2.25 -4.82,1.77 -6.98,5.48 -8.69,9.93 -1.47,3.61 -3,3.98 -6.98,3.98 -10.56,0 -17.28,8.85 -17.28,20.37 0,5.19 0.54,7.29 3.29,8.57 -11.28,12.59 -21.66,27.75 -27.79,40.97 h 4.16 c 8.36,-21.92 29.24,-49.84 56.97,-62.16 1.08,-0.46 1.08,-0.56 2.06,0.41 9.24,7.7 18.24,21.24 31.51,24.48 3.45,0.66 3.94,-3.7 0.75,-4.51 -12.04,-2.88 -20.12,-15.41 -29.9,-21.61 -0.98,-0.65 -1.78,-0.81 -2.32,-0.55 -0.4,-0.31 -1.72,-0.05 -2.26,0.16 -0.34,0.1 -0.29,0.57 -0.23,0.84 -11.23,5.39 -21.01,11.38 -30.67,20.07 -1.71,-0.81 -2.3,-1.52 -2.3,-6.08 0,-8.7 4.76,-17.14 13.57,-17.14 6.24,0 8.94,-2.2 11.06,-8.13 1.88,-5.55 4.96,-7.57 16,-8.95 l 6.03,-0.41 c 3.34,4.19 4.87,6.54 8.44,7 l -2.6,7.5 -1.82,-1.87 c 3.99,9.67 14.98,21.2 24.76,27.01 3.5,1.82 6.36,0.42 9.22,-2.19 6.19,-5.24 11.06,-11 15.43,-17.96 0.87,-1.72 -0.72,-3.06 -1.58,-4.56 l -1.08,-5.76 c 8.71,0.36 16.08,9.65 15.38,15.46 -0.34,2.05 1.87,2.86 3.29,1.68 16.26,12.69 25.98,31.99 28.53,57.22 H 188 Z m -69.77,-39.47 c -2.04,10.49 -2.58,26.05 -2.54,39.73 h 4.71 c -0.05,-12.8 -1.08,-26.89 -1.89,-39.63 -0.05,-0.51 -0.22,-0.56 -0.28,-0.1 z m 52.27,12.84 -1.17,26.89 h 1.93 l -0.44,-26.89 c 0,-0.41 -0.27,-0.41 -0.32,0 z m -23.28,-133 c -0.45,2.43 -0.16,4.68 0.07,6.82 1.93,13.25 4.58,40.11 5.56,53.36 0.54,7.6 -1.84,12.5 -9.69,17.16 -8.41,5.09 -18.3,8.43 -28.19,8.89 -4.22,0.16 -6.82,-0.46 -7.9,-2.99 -0.81,-2.09 -3.12,-1.43 -2.84,0.72 0.7,4.09 4.8,5.58 11.74,5.17 6.19,-0.41 11.18,-1.64 16.73,-3.15 l 0.92,8.26 c 0.11,1.07 -0.54,1.49 -1.13,2.4 -4.33,6 -8.14,10.99 -12.3,14.49 -2.26,1.92 -3.79,1.77 -6.22,0.05 -8.07,-5.71 -15.12,-11.97 -20.9,-19.77 l 3.19,-6.26 c 0.39,-3.13 -3.19,-2.98 -5.28,-5.27 -5.24,-4.9 -9.72,-11.85 -12.09,-14.93 -0.76,-2.71 -0.64,-3.02 -2.68,-3.02 -0.92,0 -1.46,0.61 -2.83,0.35 -7.15,-1.44 -7.59,-8.99 -5.22,-14.75 1.99,-4.35 5.62,-7.23 9.72,-5.62 l 1.37,0.86 -0.86,-1.12 c 1.64,0.31 1.7,-2.31 1.7,-3.59 L 79.7,65.04 c 0,-2.34 0.39,-2.7 2.55,-3.56 5.55,-1.72 6.81,-4.34 5.6,-8.95 -1.76,-6.16 -1.59,-8.82 1.81,-14.92 6.83,2.19 20.37,4.17 33.53,4.17 7.79,0 16.7,-1.07 24.03,-1.71 z"
     id="path1"/>
  <path
     style="display:inline;fill:#000000"
     d="m 104.1,73.41 c 3.13,-2.98 6.1,-4.47 13.03,-4.83 3.19,-0.26 3.53,-2.88 1.66,-2.88 -5.83,-0.86 -12.55,2.88 -14.69,7.71 z"
     stroke-miterlimit="10"
     stroke-width="0.75"
     id="path2"/>
  <path
     style="display:inline;fill:#000000"
     d="m 138.6,65.04 c -2.55,-0.26 -2.6,2.36 -0.67,2.72 5.08,0.86 6.9,1.42 10.94,2.98 -0.17,-2.43 -5.52,-5.09 -10.27,-5.7 z"
     stroke-miterlimit="10"
     stroke-width="0.75"
     id="path3" />
  <path
     style="display:inline;fill:#000000"
     d="m 114.4,74.7 c -2.55,0 -2.55,2.62 -2.55,6.01 0,1.97 0.65,2.73 1.92,2.73 1.99,0 2.58,-3.34 2.58,-6.12 0,-1.87 -0.59,-2.62 -1.95,-2.62 z"
     id="path4" />
  <path
     style="display:inline;fill:#000000"
     d="m 143.8,74.7 c -2.36,0 -3.12,2.47 -3.12,4.44 0,1.77 1.07,3.49 2.72,3.49 2.26,0 2.96,-3.19 2.79,-5.62 -0.12,-1.45 -0.93,-2.31 -2.39,-2.31 z"
     id="path5" />
  <path
     style="display:inline;fill:#000000"
     d="m 134,86.9 c -0.86,0.16 -0.52,1.12 0.18,1.63 2.03,1.29 2.74,2.15 2.57,3.59 -0.45,3.09 -3.41,3.4 -6.6,1.48 -1.42,-0.81 -2.4,-1.48 -2.94,-1.37 -1.08,0.2 -1.08,2.02 -0.16,2.68 3.5,2.52 6.79,3.23 9.75,1.2 3.29,-2.2 3.57,-8.19 -2.8,-9.21 z"
     id="path6" />
  <path
     style="display:inline;fill:#000000"
     d="m 70.06,88.72 c 2.09,-1.01 6.19,-0.5 8.56,2.27 1.76,2.15 4.3,-0.28 2.94,-2 -2.71,-3.29 -8.65,-2.73 -11.5,-1.07 z"
     id="path7" />
  <path
     style="display:inline;fill:#000000"
     d="m 124.2,104.7 c -1.31,0.56 -1.65,2.23 -0.28,3.62 5.3,5.6 12.98,2.72 15.07,-1.85 0.76,-1.82 -0.83,-2.94 -1.86,-1.55 -3.19,3.87 -7.9,4.02 -10.98,0.34 -0.59,-0.71 -1.24,-0.86 -1.95,-0.56 z"
     id="path8" />
</svg>
